<svg width="37" height="31" viewBox="0 0 37 31" fill="none" xmlns="http://www.w3.org/2000/svg">
<path d="M10 0H1C0.447715 0 0 0.447716 0 1V30C0 30.5523 0.447715 31 1 31H10C10.5523 31 11 30.5523 11 30V1C11 0.447715 10.5523 0 10 0Z" fill="black"/>
<path d="M23 0H14C13.4477 0 13 0.447716 13 1V30C13 30.5523 13.4477 31 14 31H23C23.5523 31 24 30.5523 24 30V1C24 0.447715 23.5523 0 23 0Z" fill="black"/>
<path d="M36 0H27C26.4477 0 26 0.447716 26 1V30C26 30.5523 26.4477 31 27 31H36C36.5523 31 37 30.5523 37 30V1C37 0.447715 36.5523 0 36 0Z" fill="black"/>
</svg>
