<svg width="37" height="37" viewBox="0 0 37 37" fill="none" xmlns="http://www.w3.org/2000/svg">
<g opacity="0.2">
<path d="M10 0H1C0.447715 0 0 0.447715 0 1V10C0 10.5523 0.447715 11 1 11H10C10.5523 11 11 10.5523 11 10V1C11 0.447715 10.5523 0 10 0Z" fill="black"/>
<path d="M10 13H1C0.447715 13 0 13.4477 0 14V23C0 23.5523 0.447715 24 1 24H10C10.5523 24 11 23.5523 11 23V14C11 13.4477 10.5523 13 10 13Z" fill="black"/>
<path d="M10 26H1C0.447715 26 0 26.4477 0 27V36C0 36.5523 0.447715 37 1 37H10C10.5523 37 11 36.5523 11 36V27C11 26.4477 10.5523 26 10 26Z" fill="black"/>
<path d="M23 0H14C13.4477 0 13 0.447715 13 1V10C13 10.5523 13.4477 11 14 11H23C23.5523 11 24 10.5523 24 10V1C24 0.447715 23.5523 0 23 0Z" fill="black"/>
<path d="M23 13H14C13.4477 13 13 13.4477 13 14V23C13 23.5523 13.4477 24 14 24H23C23.5523 24 24 23.5523 24 23V14C24 13.4477 23.5523 13 23 13Z" fill="black"/>
<path d="M23 26H14C13.4477 26 13 26.4477 13 27V36C13 36.5523 13.4477 37 14 37H23C23.5523 37 24 36.5523 24 36V27C24 26.4477 23.5523 26 23 26Z" fill="black"/>
<path d="M36 0H27C26.4477 0 26 0.447715 26 1V10C26 10.5523 26.4477 11 27 11H36C36.5523 11 37 10.5523 37 10V1C37 0.447715 36.5523 0 36 0Z" fill="black"/>
<path d="M36 13H27C26.4477 13 26 13.4477 26 14V23C26 23.5523 26.4477 24 27 24H36C36.5523 24 37 23.5523 37 23V14C37 13.4477 36.5523 13 36 13Z" fill="black"/>
<path d="M36 26H27C26.4477 26 26 26.4477 26 27V36C26 36.5523 26.4477 37 27 37H36C36.5523 37 37 36.5523 37 36V27C37 26.4477 36.5523 26 36 26Z" fill="black"/>
</g>
</svg>
