<svg width="37" height="37" viewBox="0 0 37 37" fill="none" xmlns="http://www.w3.org/2000/svg">
<path d="M10 0H1C0.447715 0 0 0.447715 0 0.999999V36C0 36.5523 0.447715 37 1 37H10C10.5523 37 11 36.5523 11 36V1C11 0.447715 10.5523 0 10 0Z" fill="black"/>
<path d="M23 0H14C13.4477 0 13 0.447715 13 0.999999V36C13 36.5523 13.4477 37 14 37H23C23.5523 37 24 36.5523 24 36V1C24 0.447715 23.5523 0 23 0Z" fill="black"/>
<path d="M36 0H27C26.4477 0 26 0.447715 26 0.999999V36C26 36.5523 26.4477 37 27 37H36C36.5523 37 37 36.5523 37 36V1C37 0.447715 36.5523 0 36 0Z" fill="black"/>
</svg>
