<svg width="31" height="37" viewBox="0 0 31 37" fill="none" xmlns="http://www.w3.org/2000/svg">
<g opacity="0.2">
<path d="M31 10L31 1C31 0.447715 30.5523 -1.95703e-08 30 -4.37114e-08L1 -1.31134e-06C0.447718 -1.33548e-06 1.88778e-06 0.447714 1.86364e-06 0.999998L1.47023e-06 10C1.44609e-06 10.5523 0.447717 11 1 11L30 11C30.5523 11 31 10.5523 31 10Z" fill="black"/>
<path d="M31 23L31 14C31 13.4477 30.5523 13 30 13L1 13C0.447718 13 1.88778e-06 13.4477 1.86364e-06 14L1.47023e-06 23C1.44609e-06 23.5523 0.447717 24 1 24L30 24C30.5523 24 31 23.5523 31 23Z" fill="black"/>
<path d="M31 36L31 27C31 26.4477 30.5523 26 30 26L1 26C0.447718 26 1.88778e-06 26.4477 1.86364e-06 27L1.47023e-06 36C1.44609e-06 36.5523 0.447717 37 1 37L30 37C30.5523 37 31 36.5523 31 36Z" fill="black"/>
</g>
</svg>
