<svg width="18" height="18" viewBox="0 0 18 18" fill="none" xmlns="http://www.w3.org/2000/svg">
<path d="M9 17C13.4183 17 17 13.4183 17 9C17 4.58172 13.4183 1 9 1C4.58172 1 1 4.58172 1 9C1 13.4183 4.58172 17 9 17Z" stroke="black" stroke-width="1.5" stroke-linecap="round" stroke-linejoin="round"/>
<path d="M6.67206 6.60001C6.86014 6.06534 7.23138 5.6145 7.72002 5.32732C8.20866 5.04014 8.78317 4.93516 9.3418 5.03098C9.90042 5.1268 10.4071 5.41723 10.7721 5.85083C11.1371 6.28444 11.3369 6.83323 11.3361 7.40001C11.3361 9.00001 8.93606 9.80001 8.93606 9.80001" stroke="black" stroke-width="1.5" stroke-linecap="round" stroke-linejoin="round"/>
<path d="M9 13H9.008" stroke="black" stroke-width="1.5" stroke-linecap="round" stroke-linejoin="round"/>
</svg>
