<svg width="38" height="35" viewBox="0 0 38 35" fill="none" xmlns="http://www.w3.org/2000/svg">
<path fill-rule="evenodd" clip-rule="evenodd" d="M11 12C11.3806 12 11.7283 12.2161 11.8967 12.5574L14.7543 18.3465L21.1447 19.2805C21.5212 19.3356 21.8339 19.5996 21.9513 19.9616C22.0687 20.3236 21.9704 20.7208 21.6978 20.9864L17.0746 25.4894L18.1656 31.851C18.23 32.2261 18.0757 32.6053 17.7678 32.8291C17.4598 33.0528 17.0515 33.0823 16.7146 32.9051L11 29.8998L5.28548 32.9051C4.94856 33.0823 4.54027 33.0528 4.2323 32.8291C3.92432 32.6053 3.77007 32.2261 3.83442 31.851L4.92551 25.4894L0.302296 20.9864C0.0296782 20.7208 -0.0685946 20.3236 0.0487831 19.9616C0.166161 19.5996 0.478841 19.3356 0.855401 19.2805L7.24577 18.3465L10.1033 12.5574C10.2718 12.2161 10.6194 12 11 12ZM11 15.2593L8.80674 19.7026C8.6612 19.9975 8.38001 20.2019 8.05466 20.2495L3.14844 20.9666L6.69776 24.4236C6.93364 24.6534 7.0413 24.9845 6.98564 25.309L6.14821 30.1917L10.5346 27.8849C10.826 27.7317 11.1741 27.7317 11.4655 27.8849L15.8518 30.1917L15.0144 25.309C14.9588 24.9845 15.0664 24.6534 15.3023 24.4236L18.8516 20.9666L13.9454 20.2495C13.62 20.2019 13.3389 19.9975 13.1933 19.7026L11 15.2593Z" fill="black"/>
<path fill-rule="evenodd" clip-rule="evenodd" d="M30.5 21C30.8764 21 31.2208 21.2113 31.3914 21.5467L33.1641 25.0325L37.1405 25.5967C37.5207 25.6506 37.8364 25.9175 37.9529 26.2834C38.0694 26.6493 37.9661 27.0496 37.687 27.3134L34.8285 30.0158L35.5018 33.826C35.5678 34.1996 35.4167 34.5784 35.1117 34.804C34.8067 35.0296 34.4003 35.0632 34.0624 34.8907L30.5 33.0723L26.9377 34.8907C26.5998 35.0632 26.1934 35.0296 25.8884 34.804C25.5834 34.5784 25.4323 34.1996 25.4983 33.826L26.1715 30.0158L23.313 27.3134C23.034 27.0496 22.9307 26.6493 23.0472 26.2834C23.1636 25.9175 23.4794 25.6506 23.8596 25.5967L27.836 25.0325L29.6087 21.5467C29.7793 21.2113 30.1237 21 30.5 21ZM30.5 24.2061L29.3829 26.4028C29.2351 26.6935 28.9548 26.8938 28.632 26.9396L26.1947 27.2854L27.937 28.9326C28.1814 29.1637 28.2933 29.5021 28.2348 29.8333L27.8173 32.1962L30.0454 31.0589C30.331 30.9131 30.6691 30.9131 30.9547 31.0589L33.1828 32.1962L32.7653 29.8333C32.7068 29.5021 32.8186 29.1637 33.063 28.9326L34.8054 27.2854L32.3681 26.9396C32.0452 26.8938 31.765 26.6935 31.6172 26.4028L30.5 24.2061Z" fill="black"/>
<path fill-rule="evenodd" clip-rule="evenodd" d="M25.8181 2.23415C26.1878 2.30458 26.4866 2.57657 26.5914 2.93801L27.6804 6.69398L31.481 7.99232C31.8444 8.11646 32.1046 8.43772 32.1505 8.81897C32.1965 9.20021 32.0201 9.5741 31.6966 9.78102L28.3828 11.9008L28.3312 15.7696C28.3261 16.1489 28.1068 16.4927 27.765 16.6573C27.4231 16.8218 27.0176 16.7788 26.718 16.5461L23.5588 14.0931L19.7191 15.2127C19.3549 15.3189 18.962 15.2099 18.7046 14.9312C18.4472 14.6525 18.3696 14.2521 18.5044 13.8975L19.8788 10.2807L17.5766 7.09102C17.3518 6.77966 17.3252 6.3671 17.5081 6.02945C17.691 5.6918 18.0511 5.48872 18.4347 5.50688L22.4465 5.69686L24.8402 2.60438C25.0705 2.3068 25.4484 2.16372 25.8181 2.23415ZM25.2181 5.38358L23.7096 7.33245C23.51 7.59031 23.1972 7.73466 22.8715 7.71923L20.4125 7.60278L21.8158 9.54699C22.0127 9.81969 22.0592 10.1731 21.9398 10.4875L21.0874 12.7305L23.489 12.0302C23.7968 11.9405 24.129 12.0037 24.3822 12.2004L26.3582 13.7346L26.3902 11.3353C26.3947 10.999 26.568 10.6875 26.8513 10.5063L28.8711 9.21423L26.5416 8.41841C26.233 8.313 25.9952 8.06376 25.9044 7.75058L25.2181 5.38358Z" fill="black"/>
</svg>
